<svg width="1218" height="630" viewBox="0 0 1218 630" fill="none" xmlns="http://www.w3.org/2000/svg">
<rect x="0.5" y="0.5" width="1217" height="629" rx="38.5" fill="#EB4745" stroke="black"/>
<path d="M45 4.5H1174C1195.26 4.5 1212.5 21.737 1212.5 43V563C1212.5 584.263 1195.26 601.5 1174 601.5H45C23.737 601.5 6.5 584.263 6.5 563V43C6.5 21.737 23.737 4.5 45 4.5Z" fill="#E88728" stroke="black"/>
<rect x="12.5" y="8.54742" width="1194" height="551.974" rx="38.5" fill="#F1B021" stroke="black"/>
<path d="M57 12.5H1162C1183.26 12.5 1200.5 29.737 1200.5 51V485C1200.5 506.263 1183.26 523.5 1162 523.5H57C35.737 523.5 18.5 506.263 18.5 485V51C18.5 29.737 35.737 12.5 57 12.5Z" fill="#6FB94F" stroke="black"/>
<rect x="23.5" y="16.5949" width="1171" height="463.453" rx="38.5" fill="#3CA4D9" stroke="black"/>
</svg>
