<svg width="1218" height="712" viewBox="0 0 1218 712" fill="none" xmlns="http://www.w3.org/2000/svg">
<rect x="0.5" y="0.5" width="1217" height="711" rx="38.5" fill="#EB4745" stroke="black"/>
<path d="M45 5.5H1174C1195.26 5.5 1212.5 22.737 1212.5 44V667C1212.5 688.263 1195.26 705.5 1174 705.5H45C23.737 705.5 6.5 688.263 6.5 667V44C6.5 22.737 23.737 5.5 45 5.5Z" fill="#E88728" stroke="black"/>
<rect x="12.5" y="9.5" width="1194" height="690" rx="38.5" fill="#F1B021" stroke="black"/>
<path d="M57 13.5H1162C1183.26 13.5 1200.5 30.737 1200.5 52V654C1200.5 675.263 1183.26 692.5 1162 692.5H57C35.737 692.5 18.5 675.263 18.5 654V52C18.5 30.7371 35.737 13.5 57 13.5Z" fill="#6FB94F" stroke="black"/>
<rect x="23.5" y="17.5" width="1171" height="669" rx="38.5" fill="#3CA4D9" stroke="black"/>
</svg>
