<svg width="933" height="427" viewBox="0 0 933 427" fill="none" xmlns="http://www.w3.org/2000/svg">
<path d="M931.201 163.319C931.201 184.262 919.8 202.381 900.519 216.311C881.228 230.247 854.112 239.932 822.919 243.941C789.546 248.23 739.91 250.953 698.645 247.278C678.002 245.44 659.535 242.007 646.258 236.414C632.937 230.803 625.201 223.19 625.201 213.146C625.201 207.99 626.927 200.791 630.143 192.074C633.35 183.38 638.007 173.261 643.795 162.294C655.371 140.362 671.44 115.097 689.394 91.16C707.351 67.2193 727.17 44.6383 746.237 28.0537C755.771 19.7614 765.096 12.9866 773.887 8.28918C782.687 3.58743 790.891 1 798.201 1C812.951 1 828.646 8.38805 843.956 20.3028C859.25 32.2041 874.054 48.5398 887 66.2366C899.944 83.93 911.007 102.951 918.83 120.198C926.669 137.48 931.201 152.864 931.201 163.319Z" fill="white" stroke="black" stroke-width="2"/>
<path d="M927.044 154.298C927.044 182.529 897.38 205.414 873.313 205.414C808.582 216.583 812.201 140.231 812.201 112C812.201 83.7693 849.246 64 873.313 64C897.38 64 927.044 126.067 927.044 154.298Z" fill="#09262F"/>
<path d="M726.201 196.319C726.201 206.744 722.262 217.628 715.424 228.534C708.589 239.436 698.891 250.306 687.466 260.682C664.615 281.437 634.951 300.131 607.77 313.097C577.568 327.506 536.774 331.673 503.532 326.906C486.913 324.522 472.267 319.917 461.806 313.313C451.35 306.712 445.201 298.208 445.201 288C445.201 282.834 446.776 275.927 449.716 267.742C452.65 259.575 456.915 250.206 462.233 240.14C472.868 220.007 487.684 197.14 504.385 175.599C521.088 154.056 539.652 133.871 557.776 119.082C575.942 104.259 593.495 95 608.201 95C638.025 95 667.546 109.759 689.634 129.885C711.749 150.037 726.201 175.369 726.201 196.319Z" fill="white" stroke="black" stroke-width="2"/>
<path d="M726.34 187.532C726.34 215.763 702.497 371.586 672.609 246C656.201 205 629.032 215.763 629.032 187.532C629.032 159.301 648.542 136.416 672.609 136.416C696.676 136.416 726.34 159.301 726.34 187.532Z" fill="#09262F"/>
<path d="M558.201 190.319C558.201 211.262 546.8 229.381 527.519 243.311C508.228 257.247 481.112 266.932 449.919 270.941C416.546 275.23 366.91 277.953 325.645 274.279C305.002 272.44 286.535 269.007 273.258 263.414C259.937 257.803 252.201 250.19 252.201 240.146C252.201 235.067 254.267 229.262 258.126 222.944C261.978 216.638 267.568 209.899 274.5 202.972C288.363 189.12 307.501 174.606 328.549 161.407C349.592 148.211 372.511 136.349 393.916 127.79C415.345 119.222 435.167 114 450.047 114C480.006 114 507.087 122.603 526.652 136.462C546.22 150.323 558.201 169.378 558.201 190.319Z" fill="white" stroke="black" stroke-width="2"/>
<path d="M554.044 181.298C554.044 209.529 524.38 232.415 500.313 232.415C435.582 243.583 456.736 209.529 456.736 181.298C456.736 153.068 476.246 130.182 500.313 130.182C524.38 130.182 554.044 153.068 554.044 181.298Z" fill="#09262F"/>
<path d="M385 246.5C385 267.559 376.679 286.394 359.053 300.624C341.397 314.879 314.332 324.568 276.778 327.116C258.541 328.354 232.07 337.33 202.742 349.334C179.541 358.831 154.457 370.266 130.113 381.363C123.65 384.309 117.238 387.232 110.928 390.088C80.8231 403.715 53.051 415.818 32.8154 421.854C22.6728 424.88 14.5605 426.337 9.03432 425.777C6.28262 425.499 4.29223 424.731 2.99611 423.528C1.72742 422.35 1 420.638 1 418.181C1 413.163 3.84601 406.573 9.22539 398.711C14.5777 390.889 22.3317 381.958 31.9109 372.294C51.0659 352.969 77.4271 330.805 106.212 308.842C163.794 264.909 230.939 221.883 269.267 204.088C298.112 190.696 327.112 190.873 348.857 199.63C370.613 208.391 385 225.669 385 246.5Z" fill="white" stroke="black" stroke-width="2"/>
<path d="M386.201 243.5C388.948 260.5 369.201 303.463 348.701 307C283.97 318.168 340.201 278.889 340.201 250.658C340.201 222.427 316.134 199.542 340.201 199.542C368.201 203.5 383.453 226.5 386.201 243.5Z" fill="#09262F"/>
</svg>
