<svg width="414" height="153" viewBox="0 0 414 153" fill="none" xmlns="http://www.w3.org/2000/svg">
<circle cx="67.5" cy="75.5" r="66.5" fill="white" stroke="black" stroke-width="2"/>
<circle cx="337.5" cy="75.5" r="66.5" fill="white" stroke="black" stroke-width="2"/>
<circle cx="270.5" cy="75.5" r="66.5" fill="white" stroke="black" stroke-width="2"/>
<circle cx="135.5" cy="75.5" r="66.5" fill="white" stroke="black" stroke-width="2"/>
<path d="M37 74.5C37 96.3153 29.165 114 19.5 114C9.83502 114 0 96.3153 0 74.5C0 52.6848 9.83502 35 19.5 35C29.165 35 37 52.6848 37 74.5Z" fill="black"/>
<path d="M37 74.5C37 96.3153 29.165 114 19.5 114C9.83502 114 0 96.3153 0 74.5C0 52.6848 9.83502 35 19.5 35C29.165 35 37 52.6848 37 74.5Z" fill="black"/>
<path d="M358.983 98.4735C375.687 84.4415 394.267 79.0654 400.484 86.4657C406.701 93.866 399.486 112.772 382.783 126.804C366.079 140.836 346.212 144.68 339.995 137.28C333.779 129.88 342.28 112.506 358.983 98.4735Z" fill="black"/>
<path d="M358.983 98.4735C375.687 84.4415 394.267 79.0654 400.484 86.4657C406.701 93.866 399.486 112.772 382.783 126.804C366.079 140.836 346.212 144.68 339.995 137.28C333.779 129.88 342.28 112.506 358.983 98.4735Z" fill="black"/>
<path d="M119.768 101.45C139.348 111.07 151.765 125.901 147.503 134.576C143.241 143.25 123.031 144.278 103.452 134.658C83.8723 125.037 72.3372 108.412 76.5994 99.7372C80.8616 91.0628 100.189 91.8296 119.768 101.45Z" fill="black"/>
<path d="M119.768 101.45C139.348 111.07 151.765 125.901 147.503 134.576C143.241 143.25 123.031 144.278 103.452 134.658C83.8723 125.037 72.3372 108.412 76.5994 99.7372C80.8616 91.0628 100.189 91.8296 119.768 101.45Z" fill="black"/>
<path d="M291.164 54.1055C275.855 38.5638 269.027 20.4665 275.912 13.6841C282.798 6.90175 302.215 12.5991 317.524 28.1408C332.832 43.6825 338.236 63.1833 331.35 69.9657C324.465 76.7481 306.473 69.6472 291.164 54.1055Z" fill="black"/>
<path d="M291.164 54.1055C275.855 38.5638 269.027 20.4665 275.912 13.6841C282.798 6.90175 302.215 12.5991 317.524 28.1408C332.832 43.6825 338.236 63.1833 331.35 69.9657C324.465 76.7481 306.473 69.6472 291.164 54.1055Z" fill="black"/>
</svg>
