<svg width="409" height="135" viewBox="0 0 409 135" fill="none" xmlns="http://www.w3.org/2000/svg">
<circle cx="67.5" cy="67.5" r="66.5" fill="white" stroke="black" stroke-width="2"/>
<circle cx="337.5" cy="67.5" r="66.5" fill="white" stroke="black" stroke-width="2"/>
<circle cx="270.5" cy="67.5" r="66.5" fill="white" stroke="black" stroke-width="2"/>
<circle cx="135.5" cy="67.5" r="66.5" fill="white" stroke="black" stroke-width="2"/>
<path d="M106.5 67.5C106.5 89.3152 98.665 107 89 107C79.335 107 69.5 89.3152 69.5 67.5C69.5 45.6848 79.335 28 89 28C98.665 28 106.5 45.6848 106.5 67.5Z" fill="black"/>
<path d="M106.5 67.5C106.5 89.3152 98.665 107 89 107C79.335 107 69.5 89.3152 69.5 67.5C69.5 45.6848 79.335 28 89 28C98.665 28 106.5 45.6848 106.5 67.5Z" fill="black"/>
<path d="M38.5 67.5C38.5 89.3153 30.665 107 21 107C11.335 107 1.5 89.3153 1.5 67.5C1.5 45.6848 11.335 28 21 28C30.665 28 38.5 45.6848 38.5 67.5Z" fill="black"/>
<path d="M38.5 67.5C38.5 89.3153 30.665 107 21 107C11.335 107 1.5 89.3153 1.5 67.5C1.5 45.6848 11.335 28 21 28C30.665 28 38.5 45.6848 38.5 67.5Z" fill="black"/>
<g filter="url(#filter0_d_30_1109)">
<path d="M298 67.5C298 89.3152 305.984 107 315.833 107C325.682 107 335.705 89.3152 335.705 67.5C335.705 45.6847 325.682 28 315.833 28C305.984 28 298 45.6847 298 67.5Z" fill="black"/>
<path d="M298 67.5C298 89.3152 305.984 107 315.833 107C325.682 107 335.705 89.3152 335.705 67.5C335.705 45.6847 325.682 28 315.833 28C305.984 28 298 45.6847 298 67.5Z" fill="black"/>
<path d="M367.295 67.5C367.295 89.3153 375.279 107 385.129 107C394.978 107 405 89.3153 405 67.5C405 45.6848 394.978 28 385.129 28C375.279 28 367.295 45.6848 367.295 67.5Z" fill="black"/>
<path d="M367.295 67.5C367.295 89.3153 375.279 107 385.129 107C394.978 107 405 89.3153 405 67.5C405 45.6848 394.978 28 385.129 28C375.279 28 367.295 45.6848 367.295 67.5Z" fill="black"/>
</g>
<defs>
<filter id="filter0_d_30_1109" x="294" y="28" width="115" height="87" filterUnits="userSpaceOnUse" color-interpolation-filters="sRGB">
<feFlood flood-opacity="0" result="BackgroundImageFix"/>
<feColorMatrix in="SourceAlpha" type="matrix" values="0 0 0 0 0 0 0 0 0 0 0 0 0 0 0 0 0 0 127 0" result="hardAlpha"/>
<feOffset dy="4"/>
<feGaussianBlur stdDeviation="2"/>
<feComposite in2="hardAlpha" operator="out"/>
<feColorMatrix type="matrix" values="0 0 0 0 0 0 0 0 0 0 0 0 0 0 0 0 0 0 0.25 0"/>
<feBlend mode="normal" in2="BackgroundImageFix" result="effect1_dropShadow_30_1109"/>
<feBlend mode="normal" in="SourceGraphic" in2="effect1_dropShadow_30_1109" result="shape"/>
</filter>
</defs>
</svg>
